<svg xmlns="http://www.w3.org/2000/svg" version="1.1" xmlns:xlink="http://www.w3.org/1999/xlink" width="512" height="512" x="0" y="0" viewBox="0 0 60 60" style="enable-background:new 0 0 512 512" xml:space="preserve">
	<g>
		<path fill="#ffdf00" d="M1 28V4a3 3 0 0 1 3-3h11.15a3 3 0 0 1 2.68 1.66l1.62 3.23A2 2 0 0 0 21.24 7H48a3 3 0 0 1 3 3v1z" opacity="1" data-original="#ffdf00">
		</path>
		<path fill="#fec108" d="M48 7h-3a3 3 0 0 1 3 3v1L1 26.98V28l50-17v-1a3 3 0 0 0-3-3zM14.83 2.66l1.62 3.23A2 2 0 0 0 18.24 7h3a2 2 0 0 1-1.79-1.11l-1.62-3.23A3 3 0 0 0 15.15 1h-3a3 3 0 0 1 2.68 1.66z" opacity="1" data-original="#fec108">
		</path>
		<path fill="#ffdf00" d="M5 23h50a4 4 0 0 1 4 4v26a6 6 0 0 1-6 6H7a6 6 0 0 1-6-6V27a4 4 0 0 1 4-4z" opacity="1" data-original="#ffdf00">
		</path>
		<path fill="#fec108" d="M55 23h-3a4 4 0 0 1 4 4v26a6 6 0 0 1-6 6h3a6 6 0 0 0 6-6V27a4 4 0 0 0-4-4z" opacity="1" data-original="#fec108">
		</path>
		<path fill="#f5f5f5" d="M8 11h44a3 3 0 0 1 3 3v9H5v-9a3 3 0 0 1 3-3z" opacity="1" data-original="#f5f5f5">
		</path>
		<g data-name="Icons copy">
			<path d="M56 22.1V14a4 4 0 0 0-4-4 4 4 0 0 0-4-4H21.24a1 1 0 0 1-.9-.558l-1.615-3.229A3.977 3.977 0 0 0 15.15 0H4a4 4 0 0 0-4 4v49a7.008 7.008 0 0 0 7 7h46a7.008 7.008 0 0 0 7-7V27a5.009 5.009 0 0 0-4-4.9zM54 14v8H6v-8a2 2 0 0 1 2-2h44a2 2 0 0 1 2 2zM4 2h11.15a1.989 1.989 0 0 1 1.787 1.108l1.619 3.229A2.986 2.986 0 0 0 21.24 8H48a2 2 0 0 1 2 2H8a4 4 0 0 0-4 4v8.1a4.954 4.954 0 0 0-2 .925V4a2 2 0 0 1 2-2zm54 51a5.006 5.006 0 0 1-5 5H7a5.006 5.006 0 0 1-5-5V27a3 3 0 0 1 3-3h50a3 3 0 0 1 3 3z" fill="#000000" opacity="1" data-original="#000000">
			</path>
		</g>
	</g>
</svg>
