<svg viewBox="0 0 1440 100" version="1.1" xmlns="http://www.w3.org/2000/svg">
	<path style="transform:translate(0, 0px); opacity:1" d="M0,20L14.1,31.7C28.2,43,56,67,85,73.3C112.9,80,141,70,169,61.7C197.6,53,226,47,254,41.7C282.4,37,311,33,339,31.7C367.1,30,395,30,424,31.7C451.8,33,480,37,508,33.3C536.5,30,565,20,593,13.3C621.2,7,649,3,678,10C705.9,17,734,33,762,45C790.6,57,819,63,847,55C875.3,47,904,23,932,23.3C960,23,988,47,1016,56.7C1044.7,67,1073,63,1101,58.3C1129.4,53,1158,47,1186,46.7C1214.1,47,1242,53,1271,58.3C1298.8,63,1327,67,1355,71.7C1383.5,77,1412,83,1440,75C1468.2,67,1496,43,1525,33.3C1552.9,23,1581,27,1609,33.3C1637.6,40,1666,50,1694,58.3C1722.4,67,1751,73,1779,63.3C1807.1,53,1835,27,1864,25C1891.8,23,1920,47,1948,55C1976.5,63,2005,57,2019,53.3L2032.9,50L2032.9,100L2018.8,100C2004.7,100,1976,100,1948,100C1920,100,1892,100,1864,100C1835.3,100,1807,100,1779,100C1750.6,100,1722,100,1694,100C1665.9,100,1638,100,1609,100C1581.2,100,1553,100,1525,100C1496.5,100,1468,100,1440,100C1411.8,100,1384,100,1355,100C1327.1,100,1299,100,1271,100C1242.4,100,1214,100,1186,100C1157.6,100,1129,100,1101,100C1072.9,100,1045,100,1016,100C988.2,100,960,100,932,100C903.5,100,875,100,847,100C818.8,100,791,100,762,100C734.1,100,706,100,678,100C649.4,100,621,100,593,100C564.7,100,536,100,508,100C480,100,452,100,424,100C395.3,100,367,100,339,100C310.6,100,282,100,254,100C225.9,100,198,100,169,100C141.2,100,113,100,85,100C56.5,100,28,100,14,100L0,100Z">
	</path>
</svg>
