<svg viewBox="0 0 1440 100" version="1.1" xmlns="http://www.w3.org/2000/svg">
	<path style="transform:translate(0, 0px); opacity:1" d="M0,0L26.7,10C53.3,20,107,40,160,48.3C213.3,57,267,53,320,51.7C373.3,50,427,50,480,51.7C533.3,53,587,57,640,61.7C693.3,67,747,73,800,78.3C853.3,83,907,87,960,86.7C1013.3,87,1067,83,1120,68.3C1173.3,53,1227,27,1280,23.3C1333.3,20,1387,40,1440,40C1493.3,40,1547,20,1600,23.3C1653.3,27,1707,53,1760,55C1813.3,57,1867,33,1920,31.7C1973.3,30,2027,50,2080,50C2133.3,50,2187,30,2240,30C2293.3,30,2347,50,2400,53.3C2453.3,57,2507,43,2560,45C2613.3,47,2667,63,2720,73.3C2773.3,83,2827,87,2880,73.3C2933.3,60,2987,30,3040,25C3093.3,20,3147,40,3200,51.7C3253.3,63,3307,67,3360,70C3413.3,73,3467,77,3520,71.7C3573.3,67,3627,53,3680,45C3733.3,37,3787,33,3813,31.7L3840,30L3840,100L3813.3,100C3786.7,100,3733,100,3680,100C3626.7,100,3573,100,3520,100C3466.7,100,3413,100,3360,100C3306.7,100,3253,100,3200,100C3146.7,100,3093,100,3040,100C2986.7,100,2933,100,2880,100C2826.7,100,2773,100,2720,100C2666.7,100,2613,100,2560,100C2506.7,100,2453,100,2400,100C2346.7,100,2293,100,2240,100C2186.7,100,2133,100,2080,100C2026.7,100,1973,100,1920,100C1866.7,100,1813,100,1760,100C1706.7,100,1653,100,1600,100C1546.7,100,1493,100,1440,100C1386.7,100,1333,100,1280,100C1226.7,100,1173,100,1120,100C1066.7,100,1013,100,960,100C906.7,100,853,100,800,100C746.7,100,693,100,640,100C586.7,100,533,100,480,100C426.7,100,373,100,320,100C266.7,100,213,100,160,100C106.7,100,53,100,27,100L0,100Z">
	</path>
</svg>
