<svg viewBox="0 0 1440 100" version="1.1" xmlns="http://www.w3.org/2000/svg">
	<path style="transform:translate(0, 0px); opacity:1" d="M0,80L14.1,66.7C28.2,53,56,27,85,23.3C112.9,20,141,40,169,53.3C197.6,67,226,73,254,75C282.4,77,311,73,339,60C367.1,47,395,23,424,16.7C451.8,10,480,20,508,31.7C536.5,43,565,57,593,56.7C621.2,57,649,43,678,46.7C705.9,50,734,70,762,73.3C790.6,77,819,63,847,60C875.3,57,904,63,932,65C960,67,988,63,1016,56.7C1044.7,50,1073,40,1101,30C1129.4,20,1158,10,1186,13.3C1214.1,17,1242,33,1271,46.7C1298.8,60,1327,70,1355,66.7C1383.5,63,1412,47,1440,45C1468.2,43,1496,57,1525,51.7C1552.9,47,1581,23,1609,23.3C1637.6,23,1666,47,1694,53.3C1722.4,60,1751,50,1779,43.3C1807.1,37,1835,33,1864,30C1891.8,27,1920,23,1948,25C1976.5,27,2005,33,2019,36.7L2032.9,40L2032.9,100L2018.8,100C2004.7,100,1976,100,1948,100C1920,100,1892,100,1864,100C1835.3,100,1807,100,1779,100C1750.6,100,1722,100,1694,100C1665.9,100,1638,100,1609,100C1581.2,100,1553,100,1525,100C1496.5,100,1468,100,1440,100C1411.8,100,1384,100,1355,100C1327.1,100,1299,100,1271,100C1242.4,100,1214,100,1186,100C1157.6,100,1129,100,1101,100C1072.9,100,1045,100,1016,100C988.2,100,960,100,932,100C903.5,100,875,100,847,100C818.8,100,791,100,762,100C734.1,100,706,100,678,100C649.4,100,621,100,593,100C564.7,100,536,100,508,100C480,100,452,100,424,100C395.3,100,367,100,339,100C310.6,100,282,100,254,100C225.9,100,198,100,169,100C141.2,100,113,100,85,100C56.5,100,28,100,14,100L0,100Z">
	</path>
</svg>
