<svg viewBox="0 0 1440 100" version="1.1" xmlns="http://www.w3.org/2000/svg">
	<path style="transform:translate(0, 0px); opacity:1" d="M0,70L14.1,66.7C28.2,63,56,57,85,51.7C112.9,47,141,43,169,46.7C197.6,50,226,60,254,53.3C282.4,47,311,23,339,20C367.1,17,395,33,424,43.3C451.8,53,480,57,508,55C536.5,53,565,47,593,41.7C621.2,37,649,33,678,28.3C705.9,23,734,17,762,16.7C790.6,17,819,23,847,31.7C875.3,40,904,50,932,50C960,50,988,40,1016,40C1044.7,40,1073,50,1101,60C1129.4,70,1158,80,1186,80C1214.1,80,1242,70,1271,66.7C1298.8,63,1327,67,1355,60C1383.5,53,1412,37,1440,36.7C1468.2,37,1496,53,1525,55C1552.9,57,1581,43,1609,45C1637.6,47,1666,63,1694,60C1722.4,57,1751,33,1779,23.3C1807.1,13,1835,17,1864,30C1891.8,43,1920,67,1948,75C1976.5,83,2005,77,2019,73.3L2032.9,70L2032.9,100L2018.8,100C2004.7,100,1976,100,1948,100C1920,100,1892,100,1864,100C1835.3,100,1807,100,1779,100C1750.6,100,1722,100,1694,100C1665.9,100,1638,100,1609,100C1581.2,100,1553,100,1525,100C1496.5,100,1468,100,1440,100C1411.8,100,1384,100,1355,100C1327.1,100,1299,100,1271,100C1242.4,100,1214,100,1186,100C1157.6,100,1129,100,1101,100C1072.9,100,1045,100,1016,100C988.2,100,960,100,932,100C903.5,100,875,100,847,100C818.8,100,791,100,762,100C734.1,100,706,100,678,100C649.4,100,621,100,593,100C564.7,100,536,100,508,100C480,100,452,100,424,100C395.3,100,367,100,339,100C310.6,100,282,100,254,100C225.9,100,198,100,169,100C141.2,100,113,100,85,100C56.5,100,28,100,14,100L0,100Z">
	</path>
</svg>
