<svg xmlns="http://www.w3.org/2000/svg" version="1.1" xmlns:xlink="http://www.w3.org/1999/xlink" width="512" height="512" x="0" y="0" viewBox="0 0 497 497" style="enable-background:new 0 0 512 512" xml:space="preserve">
	<g>
		<path fill="#ffa436" d="M467 82.5h-30v90h60v-60c0-16.57-13.43-30-30-30z" opacity="1">
		</path>
		<path fill="#ffbc2b" d="m467 112.5-90 120H0v-180c0-16.57 13.43-30 30-30h146.07c7.96 0 15.59 3.16 21.22 8.79L248.5 82.5H437c16.57 0 30 13.43 30 30z" opacity="1">
		</path>
		<path fill="#8ae7ff" d="m437 112.5-60 75h90v-75z" opacity="1">
		</path>
		<path fill="#bdf2ff" d="M437 112.5v150l-407-120v-30z" opacity="1">
		</path>
		<path fill="#ffffff" d="M30 142.5h290.93v90H30z" opacity="1">
		</path>
		<path fill="#ffbc2b" d="m467 142.5-30 30v302h30c16.57 0 30-13.43 30-30v-272c0-16.57-13.43-30-30-30z" opacity="1">
		</path>
		<path fill="#ffcf66" d="M467 142.5v302c0 16.57-13.43 30-30 30H30c-16.57 0-30-13.43-30-30v-212c0-16.57 13.43-30 30-30h218.5l51.21-51.21a30.003 30.003 0 0 1 21.22-8.79z" opacity="1">
		</path>
	</g>
</svg>
