<svg xmlns="http://www.w3.org/2000/svg" version="1.1" xmlns:xlink="http://www.w3.org/1999/xlink" width="512" height="512" x="0" y="0" viewBox="0 0 512 512" style="enable-background:new 0 0 512 512" xml:space="preserve">
	<g>
		<path d="M346 90c-8.291 0-15-6.709-15-15V45c0-8.276-6.724-15-15-15H196c-8.276 0-15 6.724-15 15v30c0 8.291-6.709 15-15 15s-15-6.709-15-15V45c0-24.814 20.186-45 45-45h120c24.814 0 45 20.186 45 45v30c0 8.291-6.709 15-15 15z" fill="#5c5f66">
		</path>
		<path d="M316 0h-60v30h60c8.276 0 15 6.724 15 15v30c0 8.291 6.709 15 15 15s15-6.709 15-15V45c0-24.814-20.186-45-45-45z" fill="#53565c">
		</path>
		<path d="M378.402 512H133.598c-23.218 0-42.92-18.135-44.824-41.265l-27.715-334.49a15.005 15.005 0 0 1 3.896-11.396A15.017 15.017 0 0 1 76 120h360c4.189 0 8.203 1.758 11.045 4.849a15.006 15.006 0 0 1 3.896 11.396l-27.715 334.49C421.322 493.865 401.62 512 378.402 512z" fill="#c4cad9">
		</path>
		<path d="M436 120H256v392h122.402c23.218 0 42.92-18.135 44.824-41.265l27.715-334.49a15.005 15.005 0 0 0-3.896-11.396A15.017 15.017 0 0 0 436 120z" fill="#b8bfcc">
		</path>
		<path d="m166.029 437.938-15-242c-.513-8.276 5.771-15.396 14.033-15.908 8.569-.601 15.381 5.757 15.908 14.033l15 242c.513 8.276-5.771 15.396-14.033 15.908-8.852.402-15.415-6.159-15.908-14.033zM256 452c-8.291 0-15-6.709-15-15V195c0-8.291 6.709-15 15-15s15 6.709 15 15v242c0 8.291-6.709 15-15 15z" fill="#a1a7b3">
		</path>
		<path d="M330.063 451.971c-8.262-.513-14.546-7.632-14.033-15.908l15-242c.513-8.276 7.764-14.297 15.908-14.033 8.262.513 14.546 7.632 14.033 15.908l-15 242c-.493 7.874-7.056 14.435-15.908 14.033zM271 437V195c0-8.291-6.709-15-15-15v272c8.291 0 15-6.709 15-15z" fill="#979ca7">
		</path>
		<path d="M436 150H76c-24.814 0-45-20.186-45-45s20.186-45 45-45h360c24.814 0 45 20.186 45 45s-20.186 45-45 45z" fill="#7f838c">
		</path>
		<path d="M436 60H256v90h180c24.814 0 45-20.186 45-45s-20.186-45-45-45z" fill="#757982">
		</path>
	</g>
</svg>
