<svg xmlns="http://www.w3.org/2000/svg" version="1.1" xmlns:xlink="http://www.w3.org/1999/xlink" width="512" height="512" x="0" y="0" viewBox="0 0 60 60" style="enable-background:new 0 0 512 512" xml:space="preserve">
	<g>
		<g fill="none" fill-rule="evenodd">
			<path fill="#f44335" d="M59 10v7H1v-7a4 4 0 0 1 4-4h50a4 4 0 0 1 4 4z" opacity="1" data-original="#f44335">
			</path>
			<path fill="#c81e1e" d="M55 6h-3a4 4 0 0 1 4 4v7h3v-7a4 4 0 0 0-4-4z" opacity="1" data-original="#c81e1e">
			</path>
			<path fill="#f5f5f5" d="M59 17v38a4 4 0 0 1-4 4H5a4 4 0 0 1-4-4V17z" opacity="1" data-original="#f5f5f5">
			</path>
			<path fill="#cfd8dc" d="M56 17v38a4 4 0 0 1-4 4h3a4 4 0 0 0 4-4V17z" opacity="1" data-original="#cfd8dc">
			</path>
			<rect width="6" height="12" x="6" y="1" fill="#7f8e94" rx="3" opacity="1" data-original="#7f8e94">
			</rect>
			<rect width="6" height="12" x="20" y="1" fill="#7f8e94" rx="3" opacity="1" data-original="#7f8e94">
			</rect>
			<rect width="6" height="12" x="34" y="1" fill="#7f8e94" rx="3" opacity="1" data-original="#7f8e94">
			</rect>
			<rect width="6" height="12" x="48" y="1" fill="#7f8e94" rx="3" opacity="1" data-original="#7f8e94">
			</rect>
			<rect width="8" height="8" x="7" y="21" fill="#02a9f4" rx="1" opacity="1" data-original="#02a9f4">
			</rect>
			<rect width="8" height="8" x="7" y="33" fill="#02a9f4" rx="1" opacity="1" data-original="#02a9f4">
			</rect>
			<rect width="8" height="8" x="7" y="45" fill="#02a9f4" rx="1" opacity="1" data-original="#02a9f4">
			</rect>
			<g fill="#000">
				<path fill-rule="nonzero" d="M55 5V4a4 4 0 1 0-8 0v1h-6V4a4 4 0 1 0-8 0v1h-6V4a4 4 0 1 0-8 0v1h-6V4a4 4 0 1 0-8 0v1a5.006 5.006 0 0 0-5 5v45a5.006 5.006 0 0 0 5 5h50a5.006 5.006 0 0 0 5-5V10a5.006 5.006 0 0 0-5-5zm-6-1a2 2 0 1 1 4 0v6a2 2 0 1 1-4 0zM35 4a2 2 0 1 1 4 0v6a2 2 0 1 1-4 0zM21 4a2 2 0 1 1 4 0v6a2 2 0 1 1-4 0zM7 4a2 2 0 1 1 4 0v6a2 2 0 1 1-4 0zM5 7v3a4 4 0 1 0 8 0V7h6v3a4 4 0 1 0 8 0V7h6v3a4 4 0 1 0 8 0V7h6v3a4 4 0 1 0 8 0V7a3 3 0 0 1 3 3v6H2v-6a3 3 0 0 1 3-3zm50 51H5a3 3 0 0 1-3-3V18h56v37a3 3 0 0 1-3 3z" fill="#000000" opacity="1" data-original="#000000">
				</path>
				<path fill-rule="nonzero" d="M14 20H8a2 2 0 0 0-2 2v6a2 2 0 0 0 2 2h6a2 2 0 0 0 2-2v-6a2 2 0 0 0-2-2zm-6 8v-6h6v6z" fill="#000000" opacity="1" data-original="#000000">
				</path>
				<path d="M21 24h17a1 1 0 0 0 0-2H21a1 1 0 0 0 0 2zM53 22H42a1 1 0 0 0 0 2h11a1 1 0 0 0 0-2zM21 28h24a1 1 0 0 0 0-2H21a1 1 0 0 0 0 2z" fill="#000000" opacity="1" data-original="#000000">
				</path>
				<path fill-rule="nonzero" d="M14 32H8a2 2 0 0 0-2 2v6a2 2 0 0 0 2 2h6a2 2 0 0 0 2-2v-6a2 2 0 0 0-2-2zm-6 8v-6h6v6z" fill="#000000" opacity="1" data-original="#000000">
				</path>
				<path d="M21 36h17a1 1 0 0 0 0-2H21a1 1 0 0 0 0 2zM53 34H42a1 1 0 0 0 0 2h11a1 1 0 0 0 0-2zM21 40h24a1 1 0 0 0 0-2H21a1 1 0 0 0 0 2z" fill="#000000" opacity="1" data-original="#000000">
				</path>
				<path fill-rule="nonzero" d="M14 44H8a2 2 0 0 0-2 2v6a2 2 0 0 0 2 2h6a2 2 0 0 0 2-2v-6a2 2 0 0 0-2-2zm-6 8v-6h6v6z" fill="#000000" opacity="1" data-original="#000000">
				</path>
				<path d="M21 48h17a1 1 0 0 0 0-2H21a1 1 0 0 0 0 2zM53 46H42a1 1 0 0 0 0 2h11a1 1 0 0 0 0-2zM45 50H21a1 1 0 0 0 0 2h24a1 1 0 0 0 0-2z" fill="#000000" opacity="1" data-original="#000000">
				</path>
			</g>
		</g>
	</g>
</svg>
