<svg viewBox="0 0 1440 100" version="1.1" xmlns="http://www.w3.org/2000/svg">
	<path style="transform:translate(0, 0px); opacity:1" d="M0,40L14.1,36.7C28.2,33,56,27,85,30C112.9,33,141,47,169,43.3C197.6,40,226,20,254,13.3C282.4,7,311,13,339,18.3C367.1,23,395,27,424,30C451.8,33,480,37,508,45C536.5,53,565,67,593,63.3C621.2,60,649,40,678,38.3C705.9,37,734,53,762,55C790.6,57,819,43,847,33.3C875.3,23,904,17,932,18.3C960,20,988,30,1016,33.3C1044.7,37,1073,33,1101,31.7C1129.4,30,1158,30,1186,30C1214.1,30,1242,30,1271,25C1298.8,20,1327,10,1355,6.7C1383.5,3,1412,7,1440,6.7C1468.2,7,1496,3,1525,11.7C1552.9,20,1581,40,1609,55C1637.6,70,1666,80,1694,75C1722.4,70,1751,50,1779,36.7C1807.1,23,1835,17,1864,16.7C1891.8,17,1920,23,1948,33.3C1976.5,43,2005,57,2019,63.3L2032.9,70L2032.9,100L2018.8,100C2004.7,100,1976,100,1948,100C1920,100,1892,100,1864,100C1835.3,100,1807,100,1779,100C1750.6,100,1722,100,1694,100C1665.9,100,1638,100,1609,100C1581.2,100,1553,100,1525,100C1496.5,100,1468,100,1440,100C1411.8,100,1384,100,1355,100C1327.1,100,1299,100,1271,100C1242.4,100,1214,100,1186,100C1157.6,100,1129,100,1101,100C1072.9,100,1045,100,1016,100C988.2,100,960,100,932,100C903.5,100,875,100,847,100C818.8,100,791,100,762,100C734.1,100,706,100,678,100C649.4,100,621,100,593,100C564.7,100,536,100,508,100C480,100,452,100,424,100C395.3,100,367,100,339,100C310.6,100,282,100,254,100C225.9,100,198,100,169,100C141.2,100,113,100,85,100C56.5,100,28,100,14,100L0,100Z">
	</path>
</svg>
