<svg viewBox="0 0 1440 100" version="1.1" xmlns="http://www.w3.org/2000/svg">
	<path style="transform:translate(0, 0px); opacity:1" d="M0,30L14.1,40C28.2,50,56,70,85,70C112.9,70,141,50,169,50C197.6,50,226,70,254,75C282.4,80,311,70,339,66.7C367.1,63,395,67,424,66.7C451.8,67,480,63,508,56.7C536.5,50,565,40,593,31.7C621.2,23,649,17,678,11.7C705.9,7,734,3,762,10C790.6,17,819,33,847,45C875.3,57,904,63,932,63.3C960,63,988,57,1016,58.3C1044.7,60,1073,70,1101,70C1129.4,70,1158,60,1186,58.3C1214.1,57,1242,63,1271,68.3C1298.8,73,1327,77,1355,78.3C1383.5,80,1412,80,1440,71.7C1468.2,63,1496,47,1525,48.3C1552.9,50,1581,70,1609,80C1637.6,90,1666,90,1694,78.3C1722.4,67,1751,43,1779,36.7C1807.1,30,1835,40,1864,50C1891.8,60,1920,70,1948,71.7C1976.5,73,2005,67,2019,63.3L2032.9,60L2032.9,100L2018.8,100C2004.7,100,1976,100,1948,100C1920,100,1892,100,1864,100C1835.3,100,1807,100,1779,100C1750.6,100,1722,100,1694,100C1665.9,100,1638,100,1609,100C1581.2,100,1553,100,1525,100C1496.5,100,1468,100,1440,100C1411.8,100,1384,100,1355,100C1327.1,100,1299,100,1271,100C1242.4,100,1214,100,1186,100C1157.6,100,1129,100,1101,100C1072.9,100,1045,100,1016,100C988.2,100,960,100,932,100C903.5,100,875,100,847,100C818.8,100,791,100,762,100C734.1,100,706,100,678,100C649.4,100,621,100,593,100C564.7,100,536,100,508,100C480,100,452,100,424,100C395.3,100,367,100,339,100C310.6,100,282,100,254,100C225.9,100,198,100,169,100C141.2,100,113,100,85,100C56.5,100,28,100,14,100L0,100Z">
	</path>
</svg>
