<svg viewBox="0 0 1440 100" version="1.1" xmlns="http://www.w3.org/2000/svg">
	<path style="transform:translate(0, 0px); opacity:1" d="M0,80L14.1,75C28.2,70,56,60,85,50C112.9,40,141,30,169,35C197.6,40,226,60,254,56.7C282.4,53,311,27,339,15C367.1,3,395,7,424,16.7C451.8,27,480,43,508,55C536.5,67,565,73,593,70C621.2,67,649,53,678,45C705.9,37,734,33,762,40C790.6,47,819,63,847,73.3C875.3,83,904,87,932,75C960,63,988,37,1016,36.7C1044.7,37,1073,63,1101,76.7C1129.4,90,1158,90,1186,85C1214.1,80,1242,70,1271,66.7C1298.8,63,1327,67,1355,61.7C1383.5,57,1412,43,1440,35C1468.2,27,1496,23,1525,18.3C1552.9,13,1581,7,1609,3.3C1637.6,0,1666,0,1694,11.7C1722.4,23,1751,47,1779,55C1807.1,63,1835,57,1864,48.3C1891.8,40,1920,30,1948,33.3C1976.5,37,2005,53,2019,61.7L2032.9,70L2032.9,100L2018.8,100C2004.7,100,1976,100,1948,100C1920,100,1892,100,1864,100C1835.3,100,1807,100,1779,100C1750.6,100,1722,100,1694,100C1665.9,100,1638,100,1609,100C1581.2,100,1553,100,1525,100C1496.5,100,1468,100,1440,100C1411.8,100,1384,100,1355,100C1327.1,100,1299,100,1271,100C1242.4,100,1214,100,1186,100C1157.6,100,1129,100,1101,100C1072.9,100,1045,100,1016,100C988.2,100,960,100,932,100C903.5,100,875,100,847,100C818.8,100,791,100,762,100C734.1,100,706,100,678,100C649.4,100,621,100,593,100C564.7,100,536,100,508,100C480,100,452,100,424,100C395.3,100,367,100,339,100C310.6,100,282,100,254,100C225.9,100,198,100,169,100C141.2,100,113,100,85,100C56.5,100,28,100,14,100L0,100Z">
	</path>
</svg>
