<svg viewBox="0 0 1440 100" version="1.1" xmlns="http://www.w3.org/2000/svg">
	<path style="transform:translate(0, 0px); opacity:1" d="M0,80L26.7,75C53.3,70,107,60,160,56.7C213.3,53,267,57,320,60C373.3,63,427,67,480,60C533.3,53,587,37,640,25C693.3,13,747,7,800,6.7C853.3,7,907,13,960,16.7C1013.3,20,1067,20,1120,21.7C1173.3,23,1227,27,1280,36.7C1333.3,47,1387,63,1440,65C1493.3,67,1547,53,1600,48.3C1653.3,43,1707,47,1760,48.3C1813.3,50,1867,50,1920,48.3C1973.3,47,2027,43,2080,41.7C2133.3,40,2187,40,2240,41.7C2293.3,43,2347,47,2400,40C2453.3,33,2507,17,2560,16.7C2613.3,17,2667,33,2720,33.3C2773.3,33,2827,17,2880,11.7C2933.3,7,2987,13,3040,18.3C3093.3,23,3147,27,3200,38.3C3253.3,50,3307,70,3360,76.7C3413.3,83,3467,77,3520,66.7C3573.3,57,3627,43,3680,45C3733.3,47,3787,63,3813,71.7L3840,80L3840,100L3813.3,100C3786.7,100,3733,100,3680,100C3626.7,100,3573,100,3520,100C3466.7,100,3413,100,3360,100C3306.7,100,3253,100,3200,100C3146.7,100,3093,100,3040,100C2986.7,100,2933,100,2880,100C2826.7,100,2773,100,2720,100C2666.7,100,2613,100,2560,100C2506.7,100,2453,100,2400,100C2346.7,100,2293,100,2240,100C2186.7,100,2133,100,2080,100C2026.7,100,1973,100,1920,100C1866.7,100,1813,100,1760,100C1706.7,100,1653,100,1600,100C1546.7,100,1493,100,1440,100C1386.7,100,1333,100,1280,100C1226.7,100,1173,100,1120,100C1066.7,100,1013,100,960,100C906.7,100,853,100,800,100C746.7,100,693,100,640,100C586.7,100,533,100,480,100C426.7,100,373,100,320,100C266.7,100,213,100,160,100C106.7,100,53,100,27,100L0,100Z">
	</path>
</svg>
