<svg viewBox="0 0 1440 100" version="1.1" xmlns="http://www.w3.org/2000/svg">
	<path style="transform:translate(0, 0px); opacity:1" d="M0,30L14.1,36.7C28.2,43,56,57,85,65C112.9,73,141,77,169,68.3C197.6,60,226,40,254,36.7C282.4,33,311,47,339,46.7C367.1,47,395,33,424,36.7C451.8,40,480,60,508,66.7C536.5,73,565,67,593,61.7C621.2,57,649,53,678,58.3C705.9,63,734,77,762,68.3C790.6,60,819,30,847,16.7C875.3,3,904,7,932,20C960,33,988,57,1016,55C1044.7,53,1073,27,1101,16.7C1129.4,7,1158,13,1186,20C1214.1,27,1242,33,1271,36.7C1298.8,40,1327,40,1355,45C1383.5,50,1412,60,1440,66.7C1468.2,73,1496,77,1525,66.7C1552.9,57,1581,33,1609,25C1637.6,17,1666,23,1694,35C1722.4,47,1751,63,1779,60C1807.1,57,1835,33,1864,26.7C1891.8,20,1920,30,1948,33.3C1976.5,37,2005,33,2019,31.7L2032.9,30L2032.9,100L2018.8,100C2004.7,100,1976,100,1948,100C1920,100,1892,100,1864,100C1835.3,100,1807,100,1779,100C1750.6,100,1722,100,1694,100C1665.9,100,1638,100,1609,100C1581.2,100,1553,100,1525,100C1496.5,100,1468,100,1440,100C1411.8,100,1384,100,1355,100C1327.1,100,1299,100,1271,100C1242.4,100,1214,100,1186,100C1157.6,100,1129,100,1101,100C1072.9,100,1045,100,1016,100C988.2,100,960,100,932,100C903.5,100,875,100,847,100C818.8,100,791,100,762,100C734.1,100,706,100,678,100C649.4,100,621,100,593,100C564.7,100,536,100,508,100C480,100,452,100,424,100C395.3,100,367,100,339,100C310.6,100,282,100,254,100C225.9,100,198,100,169,100C141.2,100,113,100,85,100C56.5,100,28,100,14,100L0,100Z">
	</path>
</svg>
