<svg viewBox="0 0 1440 100" version="1.1" xmlns="http://www.w3.org/2000/svg">
	<path style="transform:translate(0, 0px); opacity:1" d="M0,60L14.1,61.7C28.2,63,56,67,85,70C112.9,73,141,77,169,76.7C197.6,77,226,73,254,63.3C282.4,53,311,37,339,26.7C367.1,17,395,13,424,21.7C451.8,30,480,50,508,58.3C536.5,67,565,63,593,58.3C621.2,53,649,47,678,43.3C705.9,40,734,40,762,38.3C790.6,37,819,33,847,28.3C875.3,23,904,17,932,16.7C960,17,988,23,1016,31.7C1044.7,40,1073,50,1101,51.7C1129.4,53,1158,47,1186,38.3C1214.1,30,1242,20,1271,16.7C1298.8,13,1327,17,1355,20C1383.5,23,1412,27,1440,23.3C1468.2,20,1496,10,1525,11.7C1552.9,13,1581,27,1609,36.7C1637.6,47,1666,53,1694,60C1722.4,67,1751,73,1779,73.3C1807.1,73,1835,67,1864,58.3C1891.8,50,1920,40,1948,40C1976.5,40,2005,50,2019,55L2032.9,60L2032.9,100L2018.8,100C2004.7,100,1976,100,1948,100C1920,100,1892,100,1864,100C1835.3,100,1807,100,1779,100C1750.6,100,1722,100,1694,100C1665.9,100,1638,100,1609,100C1581.2,100,1553,100,1525,100C1496.5,100,1468,100,1440,100C1411.8,100,1384,100,1355,100C1327.1,100,1299,100,1271,100C1242.4,100,1214,100,1186,100C1157.6,100,1129,100,1101,100C1072.9,100,1045,100,1016,100C988.2,100,960,100,932,100C903.5,100,875,100,847,100C818.8,100,791,100,762,100C734.1,100,706,100,678,100C649.4,100,621,100,593,100C564.7,100,536,100,508,100C480,100,452,100,424,100C395.3,100,367,100,339,100C310.6,100,282,100,254,100C225.9,100,198,100,169,100C141.2,100,113,100,85,100C56.5,100,28,100,14,100L0,100Z">
	</path>
</svg>
